<?xml version="1.0" encoding="utf-8"?>
<!-- Generator: Adobe Illustrator 26.3.1, SVG Export Plug-In . SVG Version: 6.00 Build 0)  -->
<svg version="1.1" id="Camada_1" xmlns="http://www.w3.org/2000/svg" xmlns:xlink="http://www.w3.org/1999/xlink" x="0px" y="0px"
	 viewBox="0 0 595.28 841.89" style="enable-background:new 0 0 595.28 841.89;" xml:space="preserve">
<style type="text/css">
	.st0{fill:#F0E968;}
	.st1{fill:#7B87C2;}
	.st2{fill:#F5F4F5;}
</style>
<path class="st0" d="M577.79,426.94l-68.82-38.23c1.45-10.12,2.26-20.44,2.46-30.92l77.4-20.84l-79.75-18.47
	c-0.94-6.7-2.15-13.3-3.61-19.81l72.33-40.18l-84.45,1.4c-3.38-8.32-7.16-16.44-11.39-24.29l60.41-60.55l-83.44,25.45
	c-3.37-4.31-6.85-8.52-10.49-12.59l45.14-75.29l-76.47,45.85c-6.13-4.84-12.49-9.4-19.07-13.66l23.13-86.74l-61.85,66.24
	c-4.31-1.81-8.69-3.46-13.12-5.03l1.5-90.88l-44.4,79.93c-7.15-1.15-14.42-1.97-21.77-2.5l-44.46,0.69
	c-4.51,0.48-8.98,1.09-13.41,1.81l-42.9,10.96c-7.11,2.52-14.06,5.36-20.86,8.49l-37.96,21.72c-4.12,2.87-8.15,5.87-12.08,8.98
	l-31.33,29.43c-5.57,6.23-10.81,12.74-15.73,19.51L41.14,243.2c-2.7,5.46-5.2,11.03-7.51,16.7l-12.12,38.78
	c-2.1,9.36-3.73,18.91-4.74,28.64l-0.98,39.14c0.4,7.51,1.16,14.93,2.21,22.25l8.22,36.95c3.27,10.7,7.27,21.07,11.89,31.11
	l17.65,31.91c4.78,7.32,9.91,14.38,15.42,21.13l24.28,25.78c9,8.29,18.59,15.94,28.74,22.84l29.79,17.33
	c8.55,4.22,17.38,7.95,26.45,11.17l32.68,9.17c12.38,2.55,25.09,4.18,38.07,4.82l33.77-0.67c9.81-0.84,19.47-2.19,28.92-4.14
	l33.84,60.92l-1.16-70.08c11.95-4.25,23.5-9.36,34.53-15.31l50.08,49.96l-20.88-68.47c7.41-5.45,14.51-11.3,21.26-17.52l62.05,37.2
	l-37.77-62.99c7.38-9.05,14.14-18.61,20.2-28.65l72.12,19.23l-55.58-51.9c3.1-7.44,5.84-15.06,8.22-22.84L577.79,426.94z"/>
<path class="st1" d="M495.47,441.79c-5.79,11.64-12.76,22.91-20.99,33.61c-67.61,87.88-192.93,105.12-281.72,39.54
	c68.47,32.32,151.96,15.75,202.53-43.55c-46.35,35.31-112.3,36.79-160.69-0.44c-8.5-6.54-15.95-13.92-22.39-21.92
	c1,0.83,1.92,1.72,2.96,2.52c45.03,34.64,109.61,26.22,144.26-18.8s26.22-109.61-18.8-144.26
	c-44.54-34.27-108.18-26.34-143.08,17.42c3.62-7.05,7.89-13.89,12.89-20.39c44.53-57.88,127.54-68.7,185.42-24.17
	c7.94,6.11,14.97,12.97,21.11,20.36c-11.13-21.44-26.97-40.86-47.38-56.56c-70.03-53.88-168.56-45-227.99,17.82
	c3.32-5.25,6.88-10.41,10.74-15.43c68.44-88.96,196.04-105.59,284.99-37.15c17.52,13.48,32.18,29.27,43.99,46.58
	c-16.38-30.91-39.42-58.92-68.96-81.65c-110.37-84.92-268.68-64.28-353.6,46.09s-64.28,268.68,46.09,353.6
	c110.37,84.92,268.68,64.28,353.6-46.09C474.56,488,486.85,465.34,495.47,441.79z"/>
<ellipse transform="matrix(0.7071 -0.7071 0.7071 0.7071 -178.6643 306.5486)" class="st2" cx="280.7" cy="368.94" rx="104.17" ry="104.17"/>
</svg>
