<svg xmlns="http://www.w3.org/2000/svg" xmlns:xlink="http://www.w3.org/1999/xlink" width="1080" zoomAndPan="magnify" viewBox="0 0 810 809.999993" height="1080" preserveAspectRatio="xMidYMid meet" version="1.0"><path stroke-linecap="round" transform="matrix(26.124998, 0, 0, 26.128905, 13.064519, 0.00197313)" fill="none" stroke-linejoin="round" d="M 5.71344 18.159441 C 5.524445 20.359919 7.265922 22.249888 9.479888 22.249888 L 23.857281 22.249888 C 25.80136 22.249888 27.502317 20.656974 27.650792 18.726342 L 28.379859 8.60136 C 28.541791 6.360367 26.840834 4.537823 24.586348 4.537823 L 7.157967 4.537823 " stroke="#7b87c2" stroke-width="3" stroke-opacity="1" stroke-miterlimit="10"/><path stroke-linecap="round" transform="matrix(26.124998, 0, 0, 26.128905, 13.064519, 0.00197313)" fill="none" stroke-linejoin="round" d="M 2.000072 2.000074 L 4.349056 2.000074 C 5.80704 2.000074 6.954469 3.255568 6.833057 4.700029 L 6.157967 12.867469 " stroke="#7b87c2" stroke-width="3" stroke-opacity="1" stroke-miterlimit="10"/><path stroke-linecap="round" transform="matrix(26.124998, 0, 0, 26.128905, 13.064519, 0.00197313)" fill="none" stroke-linejoin="round" d="M 21.237514 28.999925 C 22.169631 28.999925 22.925014 28.244506 22.925014 27.312528 C 22.925014 26.38055 22.169631 25.624981 21.237514 25.624981 C 20.305546 25.624981 19.550014 26.38055 19.550014 27.312528 C 19.550014 28.244506 20.305546 28.999925 21.237514 28.999925 Z M 21.237514 28.999925 " stroke="#7b87c2" stroke-width="3" stroke-opacity="1" stroke-miterlimit="10"/><path stroke-linecap="round" transform="matrix(26.124998, 0, 0, 26.128905, 13.064519, 0.00197313)" fill="none" stroke-linejoin="round" d="M 10.437573 28.999925 C 11.369541 28.999925 12.125073 28.244506 12.125073 27.312528 C 12.125073 26.38055 11.369541 25.624981 10.437573 25.624981 C 9.505456 25.624981 8.750073 26.38055 8.750073 27.312528 C 8.750073 28.244506 9.505456 28.999925 10.437573 28.999925 Z M 10.437573 28.999925 " stroke="#7b87c2" stroke-width="3" stroke-opacity="1" stroke-miterlimit="10"/><path stroke-linecap="round" transform="matrix(26.124998, 0, 0, 26.128905, 13.064519, 0.00197313)" fill="none" stroke-linejoin="round" d="M 11.449983 10.100089 L 27.650044 10.100089 " stroke="#7b87c2" stroke-width="3" stroke-opacity="1" stroke-miterlimit="10"/></svg>